<?xml version="1.0" encoding="utf-8"?><svg viewBox="0 0 83 91" xmlns="http://www.w3.org/2000/svg" xmlns:xlink="http://www.w3.org/1999/xlink"><style>:root>svg{display:none}:root>svg:target{display:block}</style><svg fill="none" viewBox="0 0 64 64" id="caring" xmlns="http://www.w3.org/2000/svg"><path d="M11.7 36.398H4.864v22.65h6.838v-22.65z" fill="#47935D"/><path d="M34.267 11.234c5.885-15.7 28.942 0 0 20.186-28.941-20.186-5.884-35.886 0-20.186z" fill="#47935D" stroke="#383737" stroke-width="1.5"/><path d="M58.128 39.402a7.39 7.39 0 0 0-2.846-.56c-1.154 0-2.246.26-3.222.724l.046-.02-11.556 5.19c.006-.094.052-.174.052-.268a5.004 5.004 0 0 0-5.412-4.936l.018-.002h-7.566l-9.52-2.79a1.362 1.362 0 0 0-.414-.062h-4.346v-1.514a1.5 1.5 0 0 0-1.5-1.5H4.096a1.5 1.5 0 0 0-1.5 1.5V59.58a1.5 1.5 0 0 0 1.5 1.5h7.766a1.5 1.5 0 0 0 1.5-1.5v-2.01c3.636.568 6.89 1.484 9.974 2.734l-.298-.108c2.3.832 4.956 1.312 7.724 1.312h.042-.002.034c3.208 0 6.266-.638 9.056-1.796l-.156.058c2.486-1.106 4.596-2.272 6.594-3.598l-.164.102c.676-.418 1.348-.836 2.028-1.238 3.266-1.934 5.89-3.632 8.258-5.344a33.838 33.838 0 0 0 3.126-2.506l-.028.026a6.222 6.222 0 0 0 1.742-2.232l.016-.038c.062-.158.096-.34.096-.532a1.49 1.49 0 0 0-.036-.33l.002.01a6.363 6.363 0 0 0-3.206-4.674l-.032-.016-.004.002zm-47.766 18.68H5.596V36.664h4.766v21.418zm47.076-13c-.824.74-1.72 1.458-2.656 2.124l-.094.064c-2.286 1.652-4.836 3.3-8.028 5.192-.696.41-1.382.836-2.074 1.262a40.32 40.32 0 0 1-5.728 3.172l-.26.106c-2.304.948-4.98 1.496-7.784 1.496-2.406 0-4.718-.406-6.872-1.15l.148.044c-3.11-1.296-6.726-2.29-10.496-2.814l-.234-.026V39.68h4.124l9.52 2.79c.124.04.266.062.414.062h7.788c1.766 0 2.394 1.042 2.394 1.938 0 .896-.628 1.938-2.394 1.938H21.588a1.5 1.5 0 0 0 0 3h15.57c.22 0 .428-.048.614-.136l-.008.004 15.59-7a4.729 4.729 0 0 1 1.96-.418c.53 0 1.04.086 1.516.244l-.034-.01a3.221 3.221 0 0 1 1.504 2.092l.004.022a8.61 8.61 0 0 1-.858.87l-.01.008.002-.002zM32.864 33.48c.276.306.672.496 1.114.496.442 0 .838-.19 1.112-.494l.002-.002L47.03 20.248a11.47 11.47 0 0 0 3.664-7.994v-.1a9.555 9.555 0 0 0-2.84-6.81 10.015 10.015 0 0 0-7-2.84c-2.668 0-5.092 1.04-6.89 2.734l.006-.004a9.786 9.786 0 0 0-6.352-2.326c-.864 0-1.7.112-2.498.32l.068-.016c-3.508.996-6.214 3.704-7.194 7.138l-.018.074a9.826 9.826 0 0 0-.296 2.424c0 2.91 1.238 5.532 3.218 7.366l.006.006 11.96 13.26zm-11.99-22.278a7.342 7.342 0 0 1 5.036-5.078l.052-.012a6.236 6.236 0 0 1 1.664-.22 7.496 7.496 0 0 1 5.286 2.418l.004.006a1.493 1.493 0 0 0 2.12 0 8.571 8.571 0 0 1 5.922-2.814h.07a6.703 6.703 0 0 1 6.66 6.702v.01a8.582 8.582 0 0 1-2.806 5.938l-.006.006-.054.056L33.974 30.24l-10.9-12.082a7.056 7.056 0 0 1-2.398-5.306c0-.584.07-1.152.204-1.696l-.01.048.004-.002z" fill="#383737"/></svg><svg viewBox="0 0 72 72" id="cross" xmlns="http://www.w3.org/2000/svg"><path fill="#47935d" d="m58.14 21.78-7.76-8.013-14.29 14.22-14.22-14.22-8.013 8.013L28.217 36l-14.36 14.22 8.014 8.013 14.22-14.22 14.29 14.22 7.76-8.013L43.921 36z"/><path fill="none" stroke="#383737" stroke-linecap="round" stroke-linejoin="round" stroke-miterlimit="10" stroke-width="2" d="m58.14 21.78-7.76-8.013-14.29 14.22-14.22-14.22-8.013 8.013L28.207 36l-14.35 14.22 8.014 8.013 14.22-14.22 14.29 14.22 7.76-8.013L43.921 36z"/></svg><svg fill="none" viewBox="0 0 16 16" id="facebook" xmlns="http://www.w3.org/2000/svg"><path d="M15.75 8a7.74 7.74 0 0 1-6.563 7.656V10.25H11L11.344 8H9.188V6.562c0-.625.312-1.218 1.28-1.218h.97V3.437s-.876-.156-1.75-.156c-1.75 0-2.907 1.094-2.907 3.031V8H4.813v2.25H6.78v5.406C3.063 15.094.25 11.875.25 8A7.749 7.749 0 0 1 8 .25 7.749 7.749 0 0 1 15.75 8z" fill="#fff"/></svg><svg fill="none" viewBox="0 0 14 15" id="instagram" xmlns="http://www.w3.org/2000/svg"><path d="M7 3.406c1.969 0 3.594 1.625 3.594 3.594 0 2-1.625 3.594-3.594 3.594C5 10.594 3.406 9 3.406 7A3.594 3.594 0 0 1 7 3.406zm0 5.938c1.281 0 2.313-1.031 2.313-2.344A2.307 2.307 0 0 0 7 4.687C5.687 4.688 4.656 5.72 4.656 7A2.34 2.34 0 0 0 7 9.344zm4.563-6.063a.84.84 0 0 1-.844.844.84.84 0 0 1-.844-.844.84.84 0 0 1 .844-.844.84.84 0 0 1 .844.844zm2.374.844c.063 1.156.063 4.625 0 5.781-.062 1.125-.312 2.094-1.124 2.938-.813.812-1.813 1.062-2.938 1.125-1.156.062-4.625.062-5.781 0-1.125-.063-2.094-.313-2.938-1.125C.344 12 .094 11.03.031 9.906-.03 8.75-.03 5.281.031 4.125.094 3 .344 2 1.156 1.187 2 .375 2.97.125 4.094.063 5.25 0 8.719 0 9.875.063 11 .126 12 .376 12.813 1.188 13.624 2 13.874 3 13.937 4.126zm-1.5 7c.376-.906.282-3.094.282-4.125 0-1 .094-3.188-.281-4.125-.25-.594-.72-1.094-1.313-1.313C10.187 1.188 8 1.282 7 1.282c-1.031 0-3.219-.095-4.125.28a2.41 2.41 0 0 0-1.344 1.313C1.156 3.813 1.25 6 1.25 7c0 1.031-.094 3.219.281 4.125a2.37 2.37 0 0 0 1.344 1.344c.906.375 3.094.281 4.125.281 1 0 3.188.094 4.125-.281.594-.25 1.094-.719 1.313-1.344z" fill="#fff"/></svg><svg fill="none" viewBox="0 0 26 46" id="left-arrow" xmlns="http://www.w3.org/2000/svg"><path d="M.879 20.879a3 3 0 0 0 0 4.242L19.97 44.213a3 3 0 1 0 4.242-4.242L7.243 23l16.97-16.97a3 3 0 1 0-4.242-4.243L.879 20.879zM3 26h1v-6H3v6z" fill="#fff"/></svg><svg fill="none" viewBox="0 0 83 91" id="logo" xmlns="http://www.w3.org/2000/svg"><g filter="url(#fa)"><path d="M51.49 41.822a.931.931 0 0 0 0-1.348.93.93 0 0 0-1.349 0l-1.444 1.445c-.193.192-.29.385-.29.674 0 .192.097.481.29.674a.93.93 0 0 0 1.348 0l1.444-1.445z" fill="#47935D"/></g><path d="M22.889 70.037c0-2.696 2.119-4.815 4.815-4.815 4.237 0 7.704-3.466 7.704-7.703 0-.655-.084-1.292-.24-1.9l10.928-9.078c.076-.046.155-.086.235-.12 1.212.917 5.384 4.173 20.18 15.72 2.986 2.215 6.26 3.756 9.823 4.718l.674.193.77-1.06-4.237-7.318L54.936 43.11l18.798-15.732 3.851-6.74.29-.579L77.007 19l-.674.193c-3.563.963-6.838 2.6-9.823 4.718L46.284 39.727a.594.594 0 0 1-.188-.12L35.17 30.53a7.652 7.652 0 0 0 .239-1.9c0-4.237-3.467-7.703-7.704-7.703S20 24.392 20 28.63c0 4.237 3.467 7.703 7.704 7.703 1.52 0 2.94-.448 4.137-1.215l10.212 7.918-10.22 7.99a7.64 7.64 0 0 0-4.13-1.211c-4.236 0-7.703 3.467-7.703 7.704 0 2.938 1.668 5.505 4.104 6.803a6.701 6.701 0 0 0-3.141 5.715c0 .482.385.963.963.963s.963-.385.963-.963zm49.208-10.111 2.503 4.43c-2.503-.867-4.815-2.119-6.933-3.66-.096-.096-12.134-9.533-17.815-13.866h.002a3.235 3.235 0 0 0 .309-.075l.071-.02.101-.037a3.25 3.25 0 0 0 .961-.542l2.153-1.802 18.648 15.572zM74.6 21.793l-2.503 4.333L50.14 44.615c-.482.289-1.06.385-1.54.096a3.199 3.199 0 0 0-3.66.29l-10.496 8.762a7.403 7.403 0 0 0-.309-.467 7.784 7.784 0 0 0-.647-.848l-.104-.13 34.282-26.866c2.118-1.54 4.43-2.793 6.933-3.66zM21.926 28.63c0-3.178 2.6-5.778 5.778-5.778 3.177 0 5.777 2.6 5.777 5.778 0 .414-.045.819-.129 1.209l-.256.717a4.34 4.34 0 0 1-.352.887 5.826 5.826 0 0 1-.889 1.193 6.22 6.22 0 0 1-.588.52l-.235.188a5.736 5.736 0 0 1-3.328 1.063c-3.178 0-5.778-2.6-5.778-5.777zm21.667 13.192-10.255-7.954c.406-.437.762-.92 1.06-1.442l10.333 8.515-.85.665-.288.216zM21.926 57.52c0-3.178 2.6-5.778 5.778-5.778 1.237 0 2.385.395 3.328 1.064l.235.188c.866.674 1.444 1.54 1.83 2.6l.255.716c.084.39.13.795.13 1.21 0 3.177-2.6 5.777-5.778 5.777-3.178 0-5.778-2.6-5.778-5.777z" fill="#5c7062"/><g filter="url(#fb)"><mask id="fc" style="mask-type:alpha" maskUnits="userSpaceOnUse" x="20" y="19" width="58" height="52"><path d="M22.889 70.037c0-2.696 2.119-4.815 4.815-4.815 4.237 0 7.704-3.466 7.704-7.703 0-.655-.084-1.292-.24-1.9l10.928-9.078c.076-.046.155-.086.235-.12 1.212.917 5.384 4.173 20.18 15.72 2.986 2.215 6.26 3.756 9.823 4.718l.674.193.77-1.06-4.237-7.318L54.936 43.11l18.798-15.732 3.851-6.74.29-.579L77.007 19l-.674.193c-3.563.963-6.838 2.6-9.823 4.718L46.284 39.727a.594.594 0 0 1-.188-.12L35.17 30.53a7.652 7.652 0 0 0 .239-1.9c0-4.237-3.467-7.703-7.704-7.703S20 24.392 20 28.63c0 4.237 3.467 7.703 7.704 7.703 1.52 0 2.94-.448 4.137-1.215l10.212 7.918-10.22 7.99a7.64 7.64 0 0 0-4.13-1.211c-4.236 0-7.703 3.467-7.703 7.704 0 2.938 1.668 5.505 4.104 6.803a6.701 6.701 0 0 0-3.141 5.715c0 .482.385.963.963.963s.963-.385.963-.963zm49.208-10.111 2.503 4.43c-2.503-.867-4.815-2.119-6.933-3.66-.096-.096-12.134-9.533-17.815-13.866h.002a3.235 3.235 0 0 0 .309-.075l.071-.02.101-.037a3.25 3.25 0 0 0 .961-.542l2.153-1.802 18.648 15.572zM74.6 21.793l-2.503 4.333L50.14 44.615c-.482.289-1.06.385-1.54.096a3.199 3.199 0 0 0-3.66.29l-10.496 8.762a7.403 7.403 0 0 0-.309-.467 7.784 7.784 0 0 0-.647-.848l-.104-.13 34.282-26.866c2.118-1.54 4.43-2.793 6.933-3.66zM21.926 28.63c0-3.178 2.6-5.778 5.778-5.778 3.177 0 5.777 2.6 5.777 5.778 0 .414-.045.819-.129 1.209l-.256.717a4.34 4.34 0 0 1-.352.887 5.826 5.826 0 0 1-.889 1.193 6.22 6.22 0 0 1-.588.52l-.235.188a5.736 5.736 0 0 1-3.328 1.063c-3.178 0-5.778-2.6-5.778-5.777zm21.667 13.192-10.255-7.954c.406-.437.762-.92 1.06-1.442l10.333 8.515-.85.665-.288.216zM21.926 57.52c0-3.178 2.6-5.778 5.778-5.778 1.237 0 2.385.395 3.328 1.064l.235.188c.866.674 1.444 1.54 1.83 2.6l.255.716c.084.39.13.795.13 1.21 0 3.177-2.6 5.777-5.778 5.777-3.178 0-5.778-2.6-5.778-5.777z" fill="#5c7062"/></mask><g mask="url(#fc)" fill="#47935D"><ellipse cx="27.053" cy="57.574" rx="7.899" ry="8.407" transform="rotate(-90 27.053 57.574)"/><circle cx="23.103" cy="67.674" r="3.893" transform="rotate(-90 23.103 67.674)"/><ellipse cx="27.053" cy="28.572" rx="7.899" ry="8.407" transform="rotate(-90 27.053 28.572)"/></g></g><defs><filter id="fa" x="28.408" y="20.185" width="43.37" height="43.37" filterUnits="userSpaceOnUse" color-interpolation-filters="sRGB"><feFlood flood-opacity="0" result="BackgroundImageFix"/><feColorMatrix in="SourceAlpha" values="0 0 0 0 0 0 0 0 0 0 0 0 0 0 0 0 0 0 127 0" result="hardAlpha"/><feOffset/><feGaussianBlur stdDeviation="10"/><feComposite in2="hardAlpha" operator="out"/><feColorMatrix values="0 0 0 0 0.278431 0 0 0 0 0.576471 0 0 0 0 0.364706 0 0 0 1 0"/><feBlend in2="BackgroundImageFix" result="effect1_dropShadow_8_357"/><feBlend in="SourceGraphic" in2="effect1_dropShadow_8_357" result="shape"/></filter><filter id="fb" x="0" y=".673" width="55.46" height="90.327" filterUnits="userSpaceOnUse" color-interpolation-filters="sRGB"><feFlood flood-opacity="0" result="BackgroundImageFix"/><feColorMatrix in="SourceAlpha" values="0 0 0 0 0 0 0 0 0 0 0 0 0 0 0 0 0 0 127 0" result="hardAlpha"/><feOffset/><feGaussianBlur stdDeviation="10"/><feComposite in2="hardAlpha" operator="out"/><feColorMatrix values="0 0 0 0 0.278431 0 0 0 0 0.576471 0 0 0 0 0.364706 0 0 0 1 0"/><feBlend in2="BackgroundImageFix" result="effect1_dropShadow_8_357"/><feBlend in="SourceGraphic" in2="effect1_dropShadow_8_357" result="shape"/></filter></defs></svg><svg fill="none" viewBox="0 0 64 64" id="pin" xmlns="http://www.w3.org/2000/svg"><g clip-path="url(#ga)"><path d="M48.565 39.313v12.11c0 6.687-7.556 12.109-16.878 12.109-9.321 0-16.878-5.422-16.878-12.11v-12.11h33.756z" fill="#47935D"/><path d="M64 32C64 14.327 49.673 0 32 0 14.328.001 0 14.327 0 32c0 17.67 14.328 32 32 32 17.673 0 32-14.328 32-32zM30.486 57.874l-12.752-17.15a16.542 16.542 0 0 1-2.383-8.585c0-9.195 7.455-16.65 16.65-16.65 9.194 0 16.65 7.455 16.65 16.65 0 3.14-.87 6.079-2.383 8.584l-12.754 17.15c-.31.417-.886.675-1.514.675-.622 0-1.2-.257-1.514-.674z" fill="#383737"/><path d="m33.123 52.154 9.416-12.557a.811.811 0 0 0 0-1c-.237-.307-.664-.501-1.127-.501H22.59c-.463 0-.894.193-1.127.502a.853.853 0 0 0-.172.5c0 .173.06.346.172.5l9.412 12.558c.23.31.66.5 1.125.5.466-.002.89-.192 1.123-.502z" fill="#383737"/></g><defs><clipPath id="ga"><path fill="#fff" d="M0 0h64v64H0z"/></clipPath></defs></svg><svg fill="none" viewBox="0 0 26 46" id="right-arrow" xmlns="http://www.w3.org/2000/svg"><path d="M25.121 25.121a3 3 0 0 0 0-4.242L6.03 1.787a3 3 0 1 0-4.242 4.242L18.757 23 1.787 39.97a3 3 0 1 0 4.242 4.243l19.092-19.092zM22 26h1v-6h-1v6z" fill="#fff"/></svg><svg fill="none" viewBox="0 0 74 79" id="scissors" xmlns="http://www.w3.org/2000/svg"><g filter="url(#ia)"><path d="M39.592 40.87a.93.93 0 0 0 1.221.57.93.93 0 0 0 .57-1.222l-.699-1.92c-.093-.256-.226-.424-.488-.546a1.04 1.04 0 0 0-.733-.023.93.93 0 0 0-.57 1.221l.699 1.92z" fill="#383737"/></g><path d="M26.107 3.025c2.444 1.14 3.469 3.955 2.33 6.399-1.792 3.84-.115 8.447 3.725 10.238.594.276 1.206.47 1.823.586l3.61 13.74c.008.088.012.176.01.263-1.345.711-6.06 3.117-22.777 11.647-3.269 1.769-6.049 4.085-8.427 6.907l-.46.53.635 1.146 8.423-.747 21.969-10.285 6.314 23.686 4.481 6.34.402.505 1.326-.337.11-.693c.633-3.636.534-7.295-.125-10.896L43.69 37.038a.592.592 0 0 1 .188-.12l12.846-6.067a7.651 7.651 0 0 0 1.62 1.02c3.84 1.79 8.448.113 10.238-3.727 1.791-3.84.114-8.447-3.726-10.237-3.84-1.791-8.447-.114-10.237 3.726a7.642 7.642 0 0 0-.647 4.263L42.48 31.805l-2.923-12.639a7.64 7.64 0 0 0 2.843-3.23c1.79-3.84.114-8.448-3.726-10.238-2.663-1.242-5.695-.815-7.9.844A6.701 6.701 0 0 0 26.92 1.28a.965.965 0 0 0-1.28.466c-.244.523-.057 1.035.466 1.28zm-11.632 48.87-5.073.398c1.844-1.903 3.955-3.469 6.247-4.738.128-.046 13.768-6.967 20.096-10.285v.002a3.145 3.145 0 0 0-.064.311c-.003.025-.008.05-.01.074a3.232 3.232 0 0 0 .076 1.207l.722 2.712-21.994 10.32zm33.502 18.386-2.869-4.101-7.477-27.712c-.059-.559.098-1.123.563-1.437a3.2 3.2 0 0 0 1.285-3.439l-3.506-13.216a7.41 7.41 0 0 0 .554-.082c.352-.052.7-.129 1.042-.229l.16-.039 9.862 42.424c.501 2.571.66 5.195.386 7.83zm16.065-50.629c2.88 1.343 4.138 4.798 2.795 7.678s-4.798 4.138-7.679 2.795a5.745 5.745 0 0 1-1.04-.628l-.542-.535a4.342 4.342 0 0 1-.656-.695 5.83 5.83 0 0 1-.705-1.31 6.22 6.22 0 0 1-.222-.752l-.071-.292a5.735 5.735 0 0 1 .442-3.466c1.343-2.88 4.798-4.138 7.678-2.795zM42.93 33.713l11.543-5.932c.224.553.512 1.08.858 1.57l-12.084 5.766-.243-1.05-.074-.354zm-5.07-26.27c2.88 1.343 4.139 4.798 2.795 7.678a5.736 5.736 0 0 1-2.37 2.567l-.27.133c-.977.5-2.007.658-3.13.56l-.757-.071a5.738 5.738 0 0 1-1.15-.394c-2.88-1.343-4.138-4.798-2.795-7.678S34.98 6.1 37.86 7.443z" fill="#383737"/><defs><filter id="ia" x="18.831" y="17.673" width="42.615" height="43.829" filterUnits="userSpaceOnUse" color-interpolation-filters="sRGB"><feFlood flood-opacity="0" result="BackgroundImageFix"/><feColorMatrix in="SourceAlpha" values="0 0 0 0 0 0 0 0 0 0 0 0 0 0 0 0 0 0 127 0" result="hardAlpha"/><feOffset/><feGaussianBlur stdDeviation="10"/><feComposite in2="hardAlpha" operator="out"/><feColorMatrix values="0 0 0 0 0.278431 0 0 0 0 0.576471 0 0 0 0 0.364706 0 0 0 1 0"/><feBlend in2="BackgroundImageFix" result="effect1_dropShadow_14_800"/><feBlend in="SourceGraphic" in2="effect1_dropShadow_14_800" result="shape"/></filter></defs></svg><svg fill="none" viewBox="0 0 72 72" id="sofa" xmlns="http://www.w3.org/2000/svg"><path d="M16.614 44.28v-2.525c0-1.394 4.341-2.525 9.697-2.525 5.355 0 9.697 1.13 9.697 2.526v2.525H16.614zm19.68 0v-2.525c0-1.394 4.342-2.525 9.697-2.525 5.355 0 9.697 1.13 9.697 2.526v2.525H36.294zM33.87 30.14v-2.526c0-1.395.904-2.525 2.02-2.525s2.02 1.13 2.02 2.525v2.525h-4.04z" fill="#47935D" stroke="#383737" stroke-width="1.5"/><path d="M32.293 31.707a.997.997 0 0 0 1.414 0l.92-.92c.433.213.9.332 1.373.332.472 0 .94-.12 1.373-.331l.92.92a.997.997 0 0 0 1.414 0 .999.999 0 0 0 0-1.414l-.92-.92a3.112 3.112 0 0 0 0-2.746l.92-.92a.999.999 0 1 0-1.414-1.413l-.92.92a3.119 3.119 0 0 0-2.747 0l-.92-.92a.999.999 0 1 0-1.414 1.413l.92.92a3.112 3.112 0 0 0 0 2.747l-.92.92a.997.997 0 0 0 0 1.412zm4.5-4.5a1.121 1.121 0 1 1-1.586 1.586 1.121 1.121 0 0 1 1.586-1.585z" fill="#383737"/><path d="M65.844 32.737c-.53-2.138-2.59-3.69-4.916-3.73-2.367-3.68-6.435-5.96-10.792-6.007-2.093-4.744-7.786-8-14.136-8s-12.042 3.258-14.136 8c-4.357.047-8.425 2.326-10.792 6.009-2.527.043-4.677 1.857-5.02 4.264A5.005 5.005 0 0 0 9 38.568v9.517c0 1.841 1.283 3.38 3 3.795V56a1 1 0 0 0 1 1h3c.409 0 .776-.25.929-.629L18.678 52h34.645l1.749 4.372a1 1 0 0 0 .929.628h3a1 1 0 0 0 1-1v-4.117c1.717-.415 3-1.954 3-3.796v-9.514c2.224-.96 3.45-3.38 2.843-5.835zM22 25c1.654 0 3 1.346 3 3a1 1 0 0 0 2 0 5.005 5.005 0 0 0-3.096-4.619c1.928-3.8 6.724-6.38 12.096-6.38s10.169 2.58 12.096 6.38A5.003 5.003 0 0 0 45 28.002a1 1 0 0 0 2 0c0-1.655 1.346-3 3-3 3.444 0 6.69 1.652 8.762 4.387a5.85 5.85 0 0 0-1.518.858l-.006.005a5.92 5.92 0 0 0-.6.54l-.11.12a5.83 5.83 0 0 0-.392.48c-.04.053-.08.103-.117.157a5.718 5.718 0 0 0-.36.604c-.038.075-.073.15-.11.227a5.76 5.76 0 0 0-.227.563c-.017.05-.04.097-.055.148a5.837 5.837 0 0 0-.205.941 5.777 5.777 0 0 0-.062.806v4.727a27.79 27.79 0 0 0-19 .367 27.79 27.79 0 0 0-19-.366v-4.728a5.948 5.948 0 0 0-.093-1.01 5.826 5.826 0 0 0-.174-.738c-.015-.05-.036-.096-.053-.145a5.643 5.643 0 0 0-.231-.57 5.918 5.918 0 0 0-.469-.83c-.035-.05-.074-.098-.111-.148a5.94 5.94 0 0 0-.403-.49c-.034-.037-.066-.075-.101-.111a5.844 5.844 0 0 0-2.126-1.408c2.07-2.733 5.317-4.387 8.76-4.387zm-4.467 19a.533.533 0 0 1-.533-.532v-1.78a25.799 25.799 0 0 1 18 0V44H17.533zM37 41.688a25.799 25.799 0 0 1 18 0v1.78a.533.533 0 0 1-.533.532H37v-2.313zM15.323 55H14v-3h2.523l-1.2 3zM58 55h-1.323l-1.2-3H58v3zm3.749-18.11a.974.974 0 0 0-.246.11H60a1 1 0 1 0 0 2h1v9.084A1.918 1.918 0 0 1 59.084 50H12.915a1.918 1.918 0 0 1-1.916-1.916V39h1a1 1 0 0 0 0-2h-1.503a.974.974 0 0 0-.246-.11 3.001 3.001 0 0 1-2.218-3.335C8.239 32.099 9.585 31 11.162 31c.107 0 .208.022.312.031.013.003.025.008.038.009a3.887 3.887 0 0 1 1.4.402c.19.096.369.21.538.333.046.035.089.075.134.11.129.105.254.214.368.335.07.076.134.159.198.24.079.098.159.194.228.299.076.117.137.242.2.367.044.087.094.17.13.26.064.154.108.319.15.483.02.073.049.142.064.217.048.242.076.493.076.75V45a1 1 0 0 0 1 1h40a1 1 0 0 0 1-1V34.837c0-.257.027-.508.076-.75.015-.076.044-.145.063-.219.043-.163.086-.327.15-.482.037-.09.088-.174.132-.26.063-.125.124-.252.2-.367.069-.105.15-.202.228-.3.065-.08.127-.165.198-.24a3.89 3.89 0 0 1 .368-.334c.045-.037.087-.076.134-.11a3.76 3.76 0 0 1 .539-.333l.025-.014a3.872 3.872 0 0 1 1.376-.389c.013 0 .025-.007.038-.008.105-.008.205-.031.312-.031 1.457 0 2.746.933 3.064 2.218.455 1.832-.736 3.306-2.152 3.672z" fill="#383737"/></svg><svg fill="none" viewBox="0 0 14 14" id="whatsapp" xmlns="http://www.w3.org/2000/svg"><path d="M11.875 2.063C13.188 3.375 14 5.092 14 6.968c0 3.812-3.188 6.937-7.031 6.937-1.157 0-2.282-.312-3.313-.844L0 14l.969-3.594A6.945 6.945 0 0 1 .03 6.937C.031 3.126 3.156 0 6.97 0c1.875 0 3.625.75 4.906 2.063zM6.969 12.719c3.187 0 5.843-2.594 5.843-5.75 0-1.563-.656-3-1.75-4.094A5.697 5.697 0 0 0 7 1.187c-3.188 0-5.781 2.594-5.781 5.75 0 1.094.312 2.157.875 3.094l.156.219-.594 2.125 2.188-.594.187.125a5.78 5.78 0 0 0 2.938.813zm3.187-4.313c.156.094.281.125.313.219.062.063.062.406-.094.813-.156.406-.844.78-1.156.812-.563.094-1 .063-2.094-.438-1.75-.75-2.875-2.5-2.969-2.593-.093-.125-.687-.938-.687-1.813 0-.843.437-1.25.594-1.437a.586.586 0 0 1 .468-.219h.313c.125 0 .25-.031.406.313.125.343.5 1.187.531 1.28.032.095.063.188 0 .313-.312.657-.687.625-.5.938.688 1.156 1.344 1.562 2.375 2.062.157.094.25.063.375-.031.094-.125.438-.531.531-.688.126-.187.25-.156.407-.093.156.062 1 .468 1.187.562z" fill="#fff"/></svg><svg fill="none" viewBox="0 0 18 12" id="youtube" xmlns="http://www.w3.org/2000/svg"><path d="M17.156 1.906c.375 1.313.375 4.125.375 4.125s0 2.782-.375 4.125a2.084 2.084 0 0 1-1.5 1.5C14.312 12 9 12 9 12s-5.344 0-6.688-.344a2.084 2.084 0 0 1-1.5-1.5C.438 8.812.438 6.031.438 6.031s0-2.812.376-4.125a2.126 2.126 0 0 1 1.5-1.531C3.655 0 9 0 9 0s5.313 0 6.656.375a2.126 2.126 0 0 1 1.5 1.531zM7.25 8.563l4.438-2.532L7.25 3.5v5.063z" fill="#fff"/></svg></svg>